<?xml version="1.0" encoding="UTF-8"?>
<svg width="23px" height="22px" viewBox="0 0 23 22" version="1.1" xmlns="http://www.w3.org/2000/svg" xmlns:xlink="http://www.w3.org/1999/xlink">
    <title>icon 2</title>
    <g id="Page-1" stroke="none" stroke-width="1" fill="none" fill-rule="evenodd">
        <g id="Pattern-details-screen" transform="translate(-18.000000, -620.000000)" fill="#444444" fill-rule="nonzero">
            <g id="Intent" transform="translate(18.358818, 616.000000)">
                <g id="header" transform="translate(0.000000, 0.000000)">
                    <g id="icon" transform="translate(0.000000, 4.556627)">
                        <path d="M18,0 C20.209139,0 22,1.790861 22,4 L22,12.1847095 C22,14.3938485 20.209139,16.1847095 18,16.1847095 L16.1462229,16.1847095 L16.1462229,20.4433735 L9.30816049,16.1847095 L4,16.1847095 C1.790861,16.1847095 0,14.3938485 0,12.1847095 L0,4 C0,1.790861 1.790861,0 4,0 L18,0 Z M18,1.8 L4,1.8 C2.78497355,1.8 1.8,2.78497355 1.8,4 L1.8,12.1847095 C1.8,13.399736 2.78497355,14.3847095 4,14.3847095 L9.82284325,14.3847095 L14.346,17.202 L14.3462229,14.3847095 L18,14.3847095 C19.2150264,14.3847095 20.2,13.399736 20.2,12.1847095 L20.2,4 C20.2,2.83780079 19.2988144,1.88608476 18.157115,1.80552381 L18,1.8 Z" id="Rectangle"></path>
                        <path d="M6.1472972,7.38232167 C6.70793975,7.38232167 7.16243034,7.83681226 7.16243034,8.39745481 C7.16243034,8.95809736 6.70793975,9.41258794 6.1472972,9.41258794 C5.58665465,9.41258794 5.13216407,8.95809736 5.13216407,8.39745481 C5.13216407,7.83681226 5.58665465,7.38232167 6.1472972,7.38232167 Z" id="Oval"></path>
                        <path d="M11,7.38232167 C11.5606425,7.38232167 12.0151331,7.83681226 12.0151331,8.39745481 C12.0151331,8.95809736 11.5606425,9.41258794 11,9.41258794 C10.4393575,9.41258794 9.98486687,8.95809736 9.98486687,8.39745481 C9.98486687,7.83681226 10.4393575,7.38232167 11,7.38232167 Z" id="Oval"></path>
                        <path d="M15.8527028,7.38232167 C16.4133453,7.38232167 16.8678359,7.83681226 16.8678359,8.39745481 C16.8678359,8.95809736 16.4133453,9.41258794 15.8527028,9.41258794 C15.2920602,9.41258794 14.8375697,8.95809736 14.8375697,8.39745481 C14.8375697,7.83681226 15.2920602,7.38232167 15.8527028,7.38232167 Z" id="Oval"></path>
                    </g>
                </g>
            </g>
        </g>
    </g>
</svg>