<?xml version="1.0" encoding="UTF-8"?>
<svg width="23px" height="28px" viewBox="0 0 23 28" version="1.1" xmlns="http://www.w3.org/2000/svg" xmlns:xlink="http://www.w3.org/1999/xlink">
    <title>behavioral</title>
    <g id="Page-1" stroke="none" stroke-width="1" fill="none" fill-rule="evenodd">
        <g id="Behavioral-patterns-screen" transform="translate(-333.000000, -1132.000000)">
            <g id="TabBar" transform="translate(0.000000, 1127.000000)">
                <g id="behavioral" transform="translate(334.268700, 5.972642)">
                    <path d="M16.6756505,25.7836004 C16.6756505,24.3147443 16.6756505,23.1612544 16.6756505,22.3231308 C16.6756505,21.0659454 17.4951468,19.7984981 18.5289267,17.7389517 C19.5627066,15.6794052 20.2159098,14.5896498 20.5911917,11.7614612 C20.9545882,9.02284233 20.1014884,6.0497378 20.0853578,5.98841604 C19.5760325,4.05216673 18.6913412,2.96454254 18.1392036,2.43999177 C17.5870659,1.915441 16.4800963,1.13508291 15.2398784,0.665165307 C13.9996604,0.195247708 13.2328421,0 11.7026953,0 C10.1725486,0 8.22738811,0.215302804 7.08915673,0.665165307 C5.95092535,1.11502781 5.26750721,1.63168527 4.49763229,2.43999177 C3.72775737,3.24829826 3.17393123,4.01394413 2.75705852,5.31153597 C2.47914339,6.1765972 2.38548778,7.17850178 2.47609169,8.31724973 L2.75705852,10.4674353 L0.231829624,13.9424268 C0.0383009944,14.3167279 -0.0340610761,14.6172305 0.0147434128,14.8439345 C0.0879501461,15.1839905 0.231829624,15.3465057 0.571673219,15.52105 C0.798235615,15.6374129 1.43304177,15.7101275 2.47609169,15.7391939 C2.71977883,17.0889329 2.95239201,18.3910616 3.17393123,19.64558 C3.50624006,21.5273575 3.51598378,22.6804958 4.17436258,22.9843499 C4.61328178,23.1869194 5.20546937,23.1869194 5.95092535,22.9843499 L7.08915673,22.7455281 L7.08915673,25.7836004 L16.6756505,25.7836004 Z" id="Path-6" stroke="#50AD9A" stroke-width="1.8"></path>
                    <line x1="7.24063041" y1="22.6755048" x2="11.2312995" y2="21.5273575" id="Line-15" stroke="#50AD9A" stroke-width="1.8" stroke-linecap="square"></line>
                    <path d="M10.9523173,16.4694346 L12.250413,16.4694346 C12.5445211,16.4694346 12.8005432,16.3842703 13.0184794,16.2139415 C13.2364156,16.0436127 13.37818,15.8177419 13.4437724,15.5363292 L13.6754619,14.5270518 L13.783372,14.4889659 L14.6656962,15.0285167 C14.911139,15.1829763 15.1713929,15.2416921 15.446458,15.2046641 C15.7215231,15.1676361 15.9616761,15.0443858 16.1669169,14.8349132 L17.0651103,13.9462413 C17.274583,13.730421 17.3962464,13.4860362 17.4301005,13.213087 C17.4639547,12.9401378 17.4047099,12.6819997 17.2523662,12.4386729 L16.7064677,11.5658702 L16.7445537,11.4674815 L17.7474834,11.2262706 C18.0267802,11.1585622 18.2510641,11.01574 18.4203349,10.7978038 C18.5896057,10.5798676 18.6742412,10.3249034 18.6742412,10.0329112 L18.6742412,8.78877058 C18.6742412,8.49889428 18.5896057,8.24445906 18.4203349,8.02546492 C18.2510641,7.80647078 18.0267802,7.66311954 17.7474834,7.5954112 L16.7509013,7.35102644 L16.7096416,7.24629011 L17.25554,6.37348738 C17.4099996,6.13016055 17.4697734,5.8725515 17.4348613,5.60066023 C17.3999492,5.32876895 17.2777568,5.08385522 17.0682841,4.86591902 L16.1700908,3.97407331 C15.9669658,3.76671654 15.7278707,3.64399519 15.4528056,3.60590925 C15.1777405,3.56782331 14.9174866,3.62601016 14.6720439,3.7804698 L13.7897197,4.32002058 L13.6754619,4.27558699 L13.4437724,3.26630964 C13.37818,2.98701277 13.2364156,2.76167097 13.0184794,2.59028425 C12.8005432,2.41889753 12.5445211,2.33320417 12.250413,2.33320417 L10.9523173,2.33320417 C10.6582093,2.33320417 10.4021871,2.4194265 10.1842509,2.59187117 C9.96631473,2.76431583 9.82455041,2.98912865 9.75895796,3.26630964 L9.52409468,4.27558699 L9.40983687,4.32002058 L8.53068648,3.7804698 C8.28312788,3.62812605 8.02234501,3.57046817 7.74833784,3.60749617 C7.47433068,3.64452416 7.23470666,3.76671654 7.02946577,3.97407331 L6.13444624,4.86591902 C5.9228577,5.08385522 5.80013635,5.32876895 5.76628218,5.60066023 C5.73242801,5.8725515 5.79273075,6.13016055 5.94719038,6.37348738 L6.48991499,7.24629011 L6.45182906,7.35102644 L5.45524702,7.5954112 C5.17171838,7.66523542 4.94637658,7.80911563 4.77922163,8.02705183 C4.61206669,8.24498803 4.52848921,8.49889428 4.52848921,8.78877058 L4.52848921,10.0329112 C4.52848921,10.3249034 4.61312463,10.5803966 4.78239546,10.7993907 C4.9516663,11.0183848 5.17595015,11.1606781 5.45524702,11.2262706 L6.45817671,11.4674815 L6.49308882,11.5658702 L5.95036421,12.4386729 C5.79590458,12.6819997 5.73560184,12.9401378 5.76945601,13.213087 C5.80331018,13.4860362 5.92603153,13.730421 6.13762007,13.9462413 L7.0326396,14.8349132 C7.23788049,15.0443858 7.47803348,15.1676361 7.75309859,15.2046641 C8.02816369,15.2416921 8.28947554,15.1829763 8.53703413,15.0285167 L9.41618452,14.4889659 L9.52409468,14.5270518 L9.75895796,15.5363292 C9.82455041,15.8177419 9.96631473,16.0436127 10.1842509,16.2139415 C10.4021871,16.3842703 10.6582093,16.4694346 10.9523173,16.4694346 Z M11.2093974,15.0348643 C11.1120667,15.0348643 11.0549378,14.9883149 11.0380107,14.8952159 L10.6698466,13.3495616 C10.4561422,13.3093598 10.2445537,13.2453542 10.035081,13.157545 C9.82560835,13.0697357 9.62883101,12.9655284 9.44474898,12.8449229 L8.08635054,13.6764659 C8.01229455,13.729363 7.9392965,13.7208995 7.8673564,13.6510753 L7.31828413,13.1051768 C7.25480757,13.0438162 7.24740197,12.9708181 7.29606734,12.8861827 L8.13713179,11.5341319 C8.02498986,11.347934 7.92607222,11.1532725 7.84037886,10.9501475 C7.7546855,10.7470225 7.68962202,10.5375499 7.64518843,10.3217296 L6.09953413,9.95991316 C6.00643518,9.94298607 5.9598857,9.88585717 5.9598857,9.78852644 L5.9598857,9.02998152 C5.9598857,8.93476667 6.00643518,8.87763777 6.09953413,8.8585948 L7.6420146,8.49360456 C7.68856408,8.27355248 7.75521447,8.05931908 7.84196577,7.85090437 C7.92871708,7.64248966 8.02498986,7.451531 8.13078413,7.27802839 L7.29289351,5.92597761 C7.23999637,5.84134219 7.24528609,5.76622826 7.30876265,5.70063581 L7.86418257,5.16108503 C7.9318909,5.09549258 8.00594689,5.08702904 8.08635054,5.13569441 L9.43522749,5.95771589 C9.59180301,5.85403751 9.78117476,5.75617781 10.0033427,5.66413679 C10.2255107,5.57209578 10.4476787,5.50068464 10.6698466,5.44990339 L11.0380107,3.90742292 C11.0549378,3.81432397 11.1120667,3.76777449 11.2093974,3.76777449 L11.993333,3.76777449 C12.0906637,3.76777449 12.1467347,3.81432397 12.1615459,3.90742292 L12.5360576,5.45625105 C12.7582255,5.50491641 12.9724589,5.57315372 13.1787578,5.66096296 C13.3850566,5.74877221 13.5791891,5.84874779 13.7611552,5.96088972 L15.1036845,5.14204206 C15.1862041,5.09549258 15.2623759,5.10395613 15.3322001,5.16743269 L15.8812724,5.70698347 C15.9468649,5.77257592 15.9532125,5.84768985 15.9003154,5.93232527 L15.0687724,7.27802839 C15.1745667,7.451531 15.2703105,7.64248966 15.3560039,7.85090437 C15.4416972,8.05931908 15.5078186,8.2714366 15.5543681,8.48725691 L17.1031962,8.8585948 C17.1962952,8.87763777 17.2428447,8.93476667 17.2428447,9.02998152 L17.2428447,9.78852644 C17.2428447,9.88585717 17.1962952,9.94298607 17.1031962,9.95991316 L15.5511943,10.3280772 C15.5067607,10.5375499 15.4422262,10.7459646 15.3575908,10.9533214 C15.2729554,11.1606781 15.1745667,11.3542816 15.0624248,11.5341319 L15.8939677,12.879835 C15.9468649,12.9644704 15.9405172,13.0374685 15.8749248,13.0988292 L15.3290263,13.6447276 C15.2570862,13.7145518 15.1819723,13.7230154 15.1036845,13.6701182 L13.7611552,12.8449229 C13.5707255,12.9655284 13.3765931,13.0681488 13.1787578,13.1527843 C12.9809225,13.2374197 12.7666891,13.3030121 12.5360576,13.3495616 L12.1615459,14.8952159 C12.1467347,14.9883149 12.0906637,15.0348643 11.993333,15.0348643 L11.2093974,15.0348643 Z M11.5997783,11.7943858 C12.0377666,11.7943858 12.4376689,11.6864757 12.7994853,11.4706553 C13.1613017,11.254835 13.4495911,10.9654877 13.6643535,10.6026134 C13.8791158,10.239739 13.986497,9.83930769 13.986497,9.40131941 C13.986497,8.96544701 13.8791158,8.56713158 13.6643535,8.20637312 C13.4495911,7.84561466 13.1613017,7.55785424 12.7994853,7.34309187 C12.4376689,7.1283295 12.0377666,7.02094831 11.5997783,7.02094831 C11.16179,7.02094831 10.7618876,7.1283295 10.4000712,7.34309187 C10.0382548,7.55785424 9.74890751,7.84561466 9.53202925,8.20637312 C9.315151,8.56713158 9.20671187,8.96544701 9.20671187,9.40131941 C9.20671187,9.84142357 9.315151,10.2423839 9.53202925,10.6042003 C9.74890751,10.9660167 10.0382548,11.254835 10.4000712,11.4706553 C10.7618876,11.6864757 11.16179,11.7943858 11.5997783,11.7943858 Z M11.5997783,10.5185069 C11.3966533,10.5185069 11.2109843,10.4682546 11.0427714,10.3677501 C10.8745585,10.2672455 10.7401998,10.1323578 10.6396953,9.96308699 C10.5391907,9.79381615 10.4889384,9.60656029 10.4889384,9.40131941 C10.4889384,9.19819441 10.5391907,9.01305443 10.6396953,8.84589949 C10.7401998,8.67874454 10.8750875,8.54544376 11.0443584,8.44599714 C11.2136292,8.34655053 11.3987692,8.29682722 11.5997783,8.29682722 C11.8007874,8.29682722 11.9843404,8.3470795 12.1504375,8.44758406 C12.3165345,8.54808861 12.4493063,8.68191837 12.5487529,8.84907331 C12.6481995,9.01622826 12.6979228,9.20031029 12.6979228,9.40131941 C12.6979228,9.60444441 12.6481995,9.79064232 12.5487529,9.95991316 C12.4493063,10.129184 12.3165345,10.2646007 12.1504375,10.3661632 C11.9843404,10.4677257 11.8007874,10.5185069 11.5997783,10.5185069 Z" id="Shape" fill="#50AD9A" fill-rule="nonzero"></path>
                </g>
            </g>
        </g>
    </g>
</svg>